<?xml version="1.0" standalone="no"?><!DOCTYPE svg PUBLIC "-//W3C//DTD SVG 1.1//EN" "http://www.w3.org/Graphics/SVG/1.1/DTD/svg11.dtd"><svg t="1731590798579" class="icon" viewBox="0 0 1024 1024" version="1.1" xmlns="http://www.w3.org/2000/svg" p-id="13685" xmlns:xlink="http://www.w3.org/1999/xlink" width="200" height="200"><path d="M545.728 330.666667v368.938666h38.677333l16.213334 46.016 68.522666-45.994666h84.650667V330.709333h-208.106667 0.042667V330.666667z m159.530667 320.085333h-38.613334l-48.341333 32.469333-11.477333-32.426666h-11.562667V381.013333h109.909333v269.717334h0.085334v0.021333z m-184.426667-154.666667h-85.482667c1.365333-28.906667 2.773333-67.136 4.266667-111.338666h84.266667l-0.042667-5.205334c0-0.362667-0.128-9.472-1.493333-18.773333-1.344-9.6-4.266667-22.442667-13.525334-22.442667h-141.44c2.858667-13.248 10.176-44.864 18.965334-60.373333l4.138666-7.253333-8.32-0.426667c-0.512 0-12.608-0.576-26.666666 6.826667-22.976 12.224-33.28 36.330667-37.76 54.336-11.904 47.082667-28.736 79.786667-35.925334 93.781333-2.133333 4.138667-3.413333 6.549333-3.989333 8.234667-1.130667 3.114667-0.512 6.272 1.856 8.384 6.698667 6.122667 24.576-1.877333 24.746667-1.92l1.472-0.704c8.896-4.010667 35.434667-16.128 44.906666-54.4h36.522667c0.426667 20.736 2.005333 89.109333 1.813333 111.36h-90.730666l-1.365334 0.96c-14.869333 10.88-19.626667 40.682667-19.797333 41.984l-0.938667 5.888h107.584c-7.936 50.432-17.066667 73.045333-21.909333 82.069333-2.389333 4.48-4.693333 9.002667-6.912 13.397333-13.674667 27.157333-27.946667 55.253333-81.322667 98.922667-2.304 1.792-4.48 5.12-3.072 8.789333 1.536 4.053333 5.973333 5.866667 15.829334 5.866667 3.498667 0 7.594667-0.170667 12.501333-0.64 32.149333-2.837333 64.917333-11.605333 86.976-56.405333 10.965333-22.613333 20.437333-46.165333 28.266667-70.144l87.893333 103.04 3.264-7.68c0.512-1.258667 12.224-29.866667 3.306667-61.824l-0.384-1.130667-69.589334-79.189333-14.144 10.645333c4.096-16.789333 6.826667-32.149333 8.042667-45.802667h102.186667v-5.12c0-25.813333-11.946667-41.130667-12.373334-41.749333l-1.536-2.005333h-0.064l-0.042666 0.042666z" fill="#8794AA" p-id="13686"></path></svg>